<svg width="528" height="322" viewBox="0 0 528 322" fill="none" xmlns="http://www.w3.org/2000/svg">
<g filter="url(#filter0_d_5_1672)">
<g clip-path="url(#clip0_5_1672)">
<rect x="50" y="10" width="428" height="222" rx="32" fill="#2E2F33"/>
<rect x="387" y="139" width="32" height="32" rx="6" fill="#404450"/>
<path d="M398.429 148.375C396.737 148.713 395.463 149.987 395.125 151.679C394.787 149.987 393.512 148.713 391.821 148.375C393.512 148.037 394.787 146.762 395.125 145.071C395.463 146.762 396.737 148.037 398.429 148.375ZM406.879 148.129C405.442 147.172 405.056 147.172 403.621 148.129C404.577 146.692 404.577 146.306 403.621 144.871C405.058 145.827 405.444 145.827 406.879 144.871C405.922 146.306 405.922 146.694 406.879 148.129ZM399.379 158.129C397.942 157.172 397.556 157.172 396.121 158.129C397.077 156.692 397.077 156.306 396.121 154.871C397.558 155.827 397.944 155.827 399.379 154.871C398.422 156.306 398.422 156.694 399.379 158.129ZM410.076 153.951C408.798 153.099 408.451 153.099 407.175 153.951C408.027 152.673 408.027 152.326 407.175 151.05C408.452 151.902 408.8 151.902 410.076 151.05C409.224 152.327 409.224 152.672 410.076 153.951Z" fill="#EEEEEE"/>
<path d="M400.601 152.159L400.159 152.6C399.671 153.089 399.671 153.88 400.159 154.368L409.882 164.091C410.37 164.579 411.161 164.579 411.649 164.091L412.091 163.649C412.579 163.161 412.579 162.369 412.091 161.881L402.368 152.159C401.88 151.67 401.089 151.67 400.601 152.159Z" fill="#EEEEEE"/>
<path d="M400.159 152.6L400.6 152.159C400.835 151.924 401.153 151.792 401.484 151.792C401.816 151.792 402.134 151.924 402.368 152.159L403.694 153.484L401.484 155.694L400.159 154.368C399.924 154.134 399.792 153.816 399.792 153.484C399.792 153.153 399.924 152.835 400.159 152.6Z" fill="#EEEEEE"/>
<path d="M315 147C315 142.582 318.582 139 323 139H339C343.418 139 347 142.582 347 147V163C347 167.418 343.418 171 339 171H323C318.582 171 315 167.418 315 163V147Z" fill="#1E1F22"/>
<path d="M325.4 155.8H336.2M323 151H338.6M329 160.6H332.6" stroke="#10A37F" stroke-width="1.5" stroke-linecap="round" stroke-linejoin="round"/>
<path fill-rule="evenodd" clip-rule="evenodd" d="M266.497 139H251.503C246.276 139 243 142.699 243 147.936V162.064C243 167.301 246.261 171 251.503 171H266.497C271.739 171 275 167.301 275 162.064V147.936C275 142.699 271.739 139 266.497 139Z" fill="#1E1F22"/>
<path d="M263.167 158.185L266 161M264.785 154.358C264.785 157.317 262.371 159.716 259.393 159.716C256.414 159.716 254 157.317 254 154.358C254 151.399 256.414 149 259.393 149C262.371 149 264.785 151.399 264.785 154.358Z" stroke="#D9D9D9" stroke-linecap="round"/>
<path fill-rule="evenodd" clip-rule="evenodd" d="M194.497 139H179.503C174.276 139 171 142.699 171 147.936V162.064C171 167.301 174.261 171 179.503 171H194.497C199.739 171 203 167.301 203 162.064V147.936C203 142.699 199.739 139 194.497 139Z" fill="#1E1F22"/>
<circle cx="187" cy="155" r="1" fill="#D9D9D9"/>
<circle cx="193" cy="155" r="1" fill="#D9D9D9"/>
<circle cx="181" cy="155" r="1" fill="#D9D9D9"/>
<path fill-rule="evenodd" clip-rule="evenodd" d="M122.497 139H107.503C102.276 139 99 142.699 99 147.936V162.064C99 167.301 102.261 171 107.503 171H122.497C127.739 171 131 167.301 131 162.064V147.936C131 142.699 127.739 139 122.497 139Z" fill="#23C69E"/>
<path d="M115 149.124V160.847" stroke="white" stroke-width="1.5" stroke-linecap="round" stroke-linejoin="round"/>
<path d="M120.867 154.984H109.133" stroke="white" stroke-width="1.5" stroke-linecap="round" stroke-linejoin="round"/>
<g opacity="0.08">
<rect x="387" y="67" width="31.5077" height="32" rx="8" fill="#D9D9D9"/>
</g>
<path d="M412.163 82.8814L409.578 80.2564C409.498 80.1751 409.403 80.1107 409.299 80.0668C409.194 80.0228 409.082 80.0002 408.969 80.0003C408.856 80.0003 408.744 80.023 408.639 80.067C408.535 80.111 408.44 80.1755 408.36 80.2568C408.28 80.3381 408.216 80.4346 408.173 80.5408C408.13 80.647 408.108 80.7608 408.108 80.8757C408.108 80.9907 408.13 81.1045 408.173 81.2106C408.217 81.3168 408.28 81.4133 408.36 81.4945L409.474 82.625H404.662C404.433 82.625 404.214 82.7172 404.052 82.8813C403.891 83.0454 403.8 83.2679 403.8 83.5C403.8 83.7321 403.891 83.9546 404.052 84.1187C404.214 84.2828 404.433 84.375 404.662 84.375H409.474L408.36 85.5064C408.278 85.5871 408.212 85.6836 408.167 85.7904C408.122 85.8971 408.098 86.012 408.097 86.1281C408.096 86.2443 408.118 86.3595 408.161 86.4671C408.205 86.5746 408.269 86.6723 408.349 86.7545C408.43 86.8366 408.527 86.9016 408.632 86.9456C408.738 86.9896 408.852 87.0117 408.966 87.0107C409.081 87.0097 409.194 86.9856 409.299 86.9397C409.404 86.8939 409.499 86.8272 409.578 86.7436L412.163 84.1186C412.243 84.0374 412.307 83.9409 412.35 83.8346C412.393 83.7284 412.416 83.6146 412.416 83.4996C412.416 83.3846 412.393 83.2707 412.35 83.1645C412.307 83.0583 412.243 82.9618 412.163 82.8805V82.8814Z" fill="#23C69E"/>
<path d="M404.662 84.375C404.433 84.375 404.214 84.2828 404.052 84.1187C403.891 83.9546 403.8 83.7321 403.8 83.5C403.8 83.2679 403.891 83.0454 404.052 82.8813C404.214 82.7172 404.433 82.625 404.662 82.625H408.108V77.375C408.107 76.679 407.834 76.0117 407.35 75.5196C406.865 75.0275 406.208 74.7507 405.523 74.75H398.631C397.945 74.7507 397.288 75.0275 396.804 75.5196C396.319 76.0117 396.047 76.679 396.046 77.375V89.625C396.047 90.321 396.319 90.9883 396.804 91.4804C397.288 91.9725 397.945 92.2493 398.631 92.25H405.523C406.208 92.2493 406.865 91.9725 407.35 91.4804C407.834 90.9883 408.107 90.321 408.108 89.625V84.375H404.662Z" fill="#15715C" fill-opacity="0.6"/>
<g opacity="0.08">
<rect x="315" y="67" width="32" height="32" rx="8" fill="#D9D9D9"/>
</g>
<g clip-path="url(#clip1_5_1672)">
<path d="M341 86.0307L341 79.9696C341.001 79.2756 340.814 78.5934 340.456 77.9917C340.098 77.39 339.583 76.89 338.962 76.542L333.535 73.5257C332.916 73.1803 332.214 72.9984 331.5 72.9984C330.786 72.9984 330.084 73.1803 329.465 73.5257L324.038 76.5534C323.417 76.9015 322.902 77.4015 322.544 78.0031C322.186 78.6048 321.999 79.287 322 79.981L322 86.0307C321.997 86.725 322.185 87.4076 322.542 88.0095C322.9 88.6114 323.416 89.1112 324.038 89.4583L329.465 92.4917C330.085 92.8344 330.786 93.0147 331.5 93.0147C332.214 93.0147 332.915 92.8344 333.535 92.4917L338.962 89.4412C339.584 89.0941 340.1 88.5943 340.458 87.9924C340.815 87.3905 341.003 86.7079 341 86.0136L341 86.0307Z" fill="#10A37F" fill-opacity="0.3"/>
<path d="M327.788 82.9971C327.788 84.9785 329.449 86.5847 331.497 86.5847C333.545 86.5847 335.206 84.9785 335.206 82.9971C335.206 81.0158 333.545 79.4096 331.497 79.4096C329.449 79.4096 327.788 81.0158 327.788 82.9971Z" fill="#23C69E"/>
</g>
<g opacity="0.08">
<rect x="243" y="67" width="31.5077" height="32" rx="8" fill="#D9D9D9"/>
</g>
<g clip-path="url(#clip2_5_1672)">
<path d="M258.909 93.1443C264.174 93.1443 268.457 88.6581 268.457 83.1443C268.457 77.6306 264.174 73.1443 258.909 73.1443C253.645 73.1443 249.361 77.6306 249.361 83.1443C249.361 88.6581 253.645 93.1443 258.909 93.1443Z" fill="#10A37F" fill-opacity="0.3"/>
<path d="M254.732 88.1445C254.823 88.1446 254.912 88.1228 254.993 88.0807L260.604 85.2095C260.724 85.1486 260.82 85.0476 260.878 84.9226L263.622 79.0439C263.676 78.9269 263.695 78.795 263.674 78.6665C263.654 78.538 263.596 78.4193 263.508 78.3272C263.42 78.2351 263.307 78.1741 263.184 78.1528C263.061 78.1314 262.935 78.1508 262.824 78.2082L257.211 81.0814C257.091 81.1423 256.995 81.2433 256.937 81.3682L254.195 87.2451C254.151 87.3404 254.13 87.446 254.135 87.552C254.14 87.6581 254.171 87.7609 254.225 87.8509C254.279 87.941 254.353 88.0152 254.442 88.0665C254.531 88.1179 254.631 88.1447 254.732 88.1445ZM257.919 82.1101L261.787 80.1307L259.897 84.1814L256.03 86.1595L257.919 82.1101Z" fill="#23C69E"/>
</g>
<g opacity="0.08">
<rect x="171" y="67" width="31.5077" height="32" rx="8" fill="#D9D9D9"/>
</g>
<line x1="178.892" y1="77" x2="193.631" y2="77" stroke="#255148" stroke-width="2" stroke-linecap="round"/>
<line x1="178.892" y1="83" x2="193.631" y2="83" stroke="#255148" stroke-width="2" stroke-linecap="round"/>
<line x1="178.892" y1="89" x2="193.631" y2="89" stroke="#255148" stroke-width="2" stroke-linecap="round"/>
<ellipse cx="189.215" cy="77.5" rx="2.46154" ry="2.5" fill="#23C69E"/>
<ellipse cx="183.308" cy="83.5" rx="2.46154" ry="2.5" fill="#23C69E"/>
<ellipse cx="189.215" cy="89.5" rx="2.46154" ry="2.5" fill="#23C69E"/>
<rect x="99" y="67" width="31.5077" height="32" rx="8" fill="#10A37F"/>
<path d="M120.662 83.1389C120.664 84.0921 120.445 85.0325 120.022 85.8833C119.52 86.9029 118.748 87.7605 117.794 88.36C116.839 88.9596 115.739 89.2773 114.617 89.2778C113.679 89.2803 112.753 89.0576 111.915 88.6278L107.862 90L109.213 85.8833C108.79 85.0325 108.57 84.0921 108.573 83.1389C108.573 81.9991 108.886 80.8819 109.476 79.9124C110.067 78.943 110.911 78.1596 111.915 77.65C112.753 77.2202 113.679 76.9975 114.617 77H114.973C116.455 77.0831 117.855 77.7185 118.904 78.7845C119.954 79.8506 120.58 81.2724 120.662 82.7778V83.1389Z" stroke="#EEEEEE" stroke-width="1.2" stroke-linecap="round" stroke-linejoin="round"/>
</g>
</g>
<defs>
<filter id="filter0_d_5_1672" x="0" y="0" width="528" height="322" filterUnits="userSpaceOnUse" color-interpolation-filters="sRGB">
<feFlood flood-opacity="0" result="BackgroundImageFix"/>
<feColorMatrix in="SourceAlpha" type="matrix" values="0 0 0 0 0 0 0 0 0 0 0 0 0 0 0 0 0 0 127 0" result="hardAlpha"/>
<feOffset dy="40"/>
<feGaussianBlur stdDeviation="25"/>
<feComposite in2="hardAlpha" operator="out"/>
<feColorMatrix type="matrix" values="0 0 0 0 0.286275 0 0 0 0 0.596078 0 0 0 0 0.521569 0 0 0 0.5 0"/>
<feBlend mode="normal" in2="BackgroundImageFix" result="effect1_dropShadow_5_1672"/>
<feBlend mode="normal" in="SourceGraphic" in2="effect1_dropShadow_5_1672" result="shape"/>
</filter>
<clipPath id="clip0_5_1672">
<rect x="50" y="10" width="428" height="222" rx="32" fill="white"/>
</clipPath>
<clipPath id="clip1_5_1672">
<rect width="20" height="19" fill="white" transform="translate(341 73) rotate(90)"/>
</clipPath>
<clipPath id="clip2_5_1672">
<rect width="19.6923" height="20" fill="white" transform="translate(248.908 73)"/>
</clipPath>
</defs>
</svg>
